<?xml version="1.0" encoding="UTF-8" standalone="no"?>
<!DOCTYPE svg PUBLIC "-//W3C//DTD SVG 1.1//EN"
 "http://www.w3.org/Graphics/SVG/1.1/DTD/svg11.dtd">
<!-- Generated by graphviz version 10.0.1 (20240210.2158)
 -->
<!-- Title: tree_vs_dict Pages: 1 -->
<svg width="401pt" height="534pt"
 viewBox="0.00 0.00 401.00 533.50" xmlns="http://www.w3.org/2000/svg" xmlns:xlink="http://www.w3.org/1999/xlink">
<g id="graph0" class="graph" transform="scale(1 1) rotate(0) translate(4 529.5)">
<title>tree_vs_dict</title>
<polygon fill="white" stroke="none" points="-4,4 -4,-529.5 397,-529.5 397,4 -4,4"/>
<g id="clust1" class="cluster">
<title>cluster_tree</title>
<path fill="none" stroke="#999999" d="M20,-272.25C20,-272.25 220,-272.25 220,-272.25 226,-272.25 232,-278.25 232,-284.25 232,-284.25 232,-505.5 232,-505.5 232,-511.5 226,-517.5 220,-517.5 220,-517.5 20,-517.5 20,-517.5 14,-517.5 8,-511.5 8,-505.5 8,-505.5 8,-284.25 8,-284.25 8,-278.25 14,-272.25 20,-272.25"/>
<text text-anchor="start" x="15.75" y="-502.15" font-family="Helvetica,sans-Serif" font-weight="bold" font-size="13.00">树实现：同一局面 S 被拆成两个节点</text>
</g>
<g id="clust2" class="cluster">
<title>cluster_dict</title>
<path fill="none" stroke="#999999" d="M173,-8C173,-8 373,-8 373,-8 379,-8 385,-14 385,-20 385,-20 385,-241.25 385,-241.25 385,-247.25 379,-253.25 373,-253.25 373,-253.25 173,-253.25 173,-253.25 167,-253.25 161,-247.25 161,-241.25 161,-241.25 161,-20 161,-20 161,-14 167,-8 173,-8"/>
<text text-anchor="start" x="168.75" y="-237.9" font-family="Helvetica,sans-Serif" font-weight="bold" font-size="13.00">字典实现：同一局面 S 只有一个条目</text>
</g>
<!-- T0 -->
<g id="node1" class="node">
<title>T0</title>
<polygon fill="white" stroke="black" points="194,-482.75 140,-482.75 140,-446.75 194,-446.75 194,-482.75"/>
<text text-anchor="middle" x="167" y="-459.73" font-family="Helvetica,sans-Serif" font-size="12.00">Root</text>
</g>
<!-- Ta -->
<g id="node2" class="node">
<title>Ta</title>
<polygon fill="white" stroke="black" points="110.92,-399.5 45.08,-399.5 45.08,-363.5 110.92,-363.5 110.92,-399.5"/>
<text text-anchor="middle" x="78" y="-376.48" font-family="Helvetica,sans-Serif" font-size="12.00">Node_A</text>
</g>
<!-- T0&#45;&gt;Ta -->
<g id="edge1" class="edge">
<title>T0&#45;&gt;Ta</title>
<path fill="none" stroke="black" d="M148.13,-446.52C135.7,-435.18 119.24,-420.15 105.38,-407.5"/>
<polygon fill="black" stroke="black" points="108.02,-405.16 98.27,-401.01 103.3,-410.33 108.02,-405.16"/>
<text text-anchor="middle" x="133.62" y="-419.25" font-family="Helvetica,sans-Serif" font-size="10.00"> a </text>
</g>
<!-- Tb -->
<g id="node3" class="node">
<title>Tb</title>
<polygon fill="white" stroke="black" points="199.93,-399.5 134.07,-399.5 134.07,-363.5 199.93,-363.5 199.93,-399.5"/>
<text text-anchor="middle" x="167" y="-376.48" font-family="Helvetica,sans-Serif" font-size="12.00">Node_B</text>
</g>
<!-- T0&#45;&gt;Tb -->
<g id="edge2" class="edge">
<title>T0&#45;&gt;Tb</title>
<path fill="none" stroke="black" d="M167,-446.52C167,-436.25 167,-422.95 167,-411.14"/>
<polygon fill="black" stroke="black" points="170.5,-411.5 167,-401.5 163.5,-411.5 170.5,-411.5"/>
<text text-anchor="middle" x="172.62" y="-419.25" font-family="Helvetica,sans-Serif" font-size="10.00"> b </text>
</g>
<!-- D0 -->
<g id="node6" class="node">
<title>D0</title>
<polygon fill="white" stroke="black" points="260,-218.5 206,-218.5 206,-182.5 260,-182.5 260,-218.5"/>
<text text-anchor="middle" x="233" y="-195.47" font-family="Helvetica,sans-Serif" font-size="12.00">Root</text>
</g>
<!-- T0&#45;&gt;D0 -->
<!-- Tab -->
<g id="node4" class="node">
<title>Tab</title>
<polygon fill="#f4cccc" stroke="#cc0000" stroke-width="2" points="111.17,-316.25 34.83,-316.25 34.83,-280.25 111.17,-280.25 111.17,-316.25"/>
<text text-anchor="middle" x="73" y="-295.48" font-family="Helvetica,sans-Serif" font-size="12.00">S（N=1）</text>
</g>
<!-- Ta&#45;&gt;Tab -->
<g id="edge3" class="edge">
<title>Ta&#45;&gt;Tab</title>
<path fill="none" stroke="black" d="M76.94,-363.27C76.32,-353.17 75.52,-340.15 74.8,-328.5"/>
<polygon fill="black" stroke="black" points="78.29,-328.29 74.19,-318.53 71.31,-328.72 78.29,-328.29"/>
<text text-anchor="middle" x="81.62" y="-336" font-family="Helvetica,sans-Serif" font-size="10.00"> b </text>
</g>
<!-- Tba -->
<g id="node5" class="node">
<title>Tba</title>
<polygon fill="#f4cccc" stroke="#cc0000" stroke-width="2" points="205.18,-316.25 128.82,-316.25 128.82,-280.25 205.18,-280.25 205.18,-316.25"/>
<text text-anchor="middle" x="167" y="-295.48" font-family="Helvetica,sans-Serif" font-size="12.00">S（N=1）</text>
</g>
<!-- Tb&#45;&gt;Tba -->
<g id="edge4" class="edge">
<title>Tb&#45;&gt;Tba</title>
<path fill="none" stroke="black" d="M167,-363.27C167,-353.17 167,-340.15 167,-328.5"/>
<polygon fill="black" stroke="black" points="170.5,-328.53 167,-318.53 163.5,-328.53 170.5,-328.53"/>
<text text-anchor="middle" x="172.62" y="-336" font-family="Helvetica,sans-Serif" font-size="10.00"> a </text>
</g>
<!-- Da -->
<g id="node7" class="node">
<title>Da</title>
<polygon fill="white" stroke="black" points="236.93,-135.25 171.07,-135.25 171.07,-99.25 236.93,-99.25 236.93,-135.25"/>
<text text-anchor="middle" x="204" y="-112.22" font-family="Helvetica,sans-Serif" font-size="12.00">Node_A</text>
</g>
<!-- D0&#45;&gt;Da -->
<g id="edge5" class="edge">
<title>D0&#45;&gt;Da</title>
<path fill="none" stroke="black" d="M226.85,-182.27C223.15,-171.89 218.34,-158.42 214.09,-146.52"/>
<polygon fill="black" stroke="black" points="217.41,-145.4 210.75,-137.16 210.82,-147.76 217.41,-145.4"/>
<text text-anchor="middle" x="225.62" y="-155" font-family="Helvetica,sans-Serif" font-size="10.00"> a </text>
</g>
<!-- Db -->
<g id="node8" class="node">
<title>Db</title>
<polygon fill="white" stroke="black" points="320.93,-135.25 255.07,-135.25 255.07,-99.25 320.93,-99.25 320.93,-135.25"/>
<text text-anchor="middle" x="288" y="-112.22" font-family="Helvetica,sans-Serif" font-size="12.00">Node_B</text>
</g>
<!-- D0&#45;&gt;Db -->
<g id="edge6" class="edge">
<title>D0&#45;&gt;Db</title>
<path fill="none" stroke="black" d="M244.66,-182.27C251.98,-171.46 261.56,-157.31 269.86,-145.05"/>
<polygon fill="black" stroke="black" points="272.61,-147.23 275.31,-136.99 266.81,-143.31 272.61,-147.23"/>
<text text-anchor="middle" x="268.62" y="-155" font-family="Helvetica,sans-Serif" font-size="10.00"> b </text>
</g>
<!-- DS -->
<g id="node9" class="node">
<title>DS</title>
<polygon fill="#d9ead3" stroke="#38761d" stroke-width="2" points="273.18,-52 196.82,-52 196.82,-16 273.18,-16 273.18,-52"/>
<text text-anchor="middle" x="235" y="-31.23" font-family="Helvetica,sans-Serif" font-size="12.00">S（N=2）</text>
</g>
<!-- Da&#45;&gt;DS -->
<g id="edge7" class="edge">
<title>Da&#45;&gt;DS</title>
<path fill="none" stroke="black" d="M210.57,-99.02C214.51,-88.71 219.6,-75.36 224.12,-63.51"/>
<polygon fill="black" stroke="black" points="227.39,-64.77 227.68,-54.18 220.85,-62.28 227.39,-64.77"/>
<text text-anchor="middle" x="226.62" y="-71.75" font-family="Helvetica,sans-Serif" font-size="10.00"> b </text>
</g>
<!-- Db&#45;&gt;DS -->
<g id="edge8" class="edge">
<title>Db&#45;&gt;DS</title>
<path fill="none" stroke="black" d="M276.76,-99.02C269.76,-88.29 260.6,-74.25 252.65,-62.05"/>
<polygon fill="black" stroke="black" points="255.81,-60.5 247.42,-54.04 249.95,-64.32 255.81,-60.5"/>
<text text-anchor="middle" x="269.62" y="-71.75" font-family="Helvetica,sans-Serif" font-size="10.00"> a </text>
</g>
</g>
</svg>
